<svg xmlns="http://www.w3.org/2000/svg" viewBox="0 0 761.75 70"><defs><style>.a{fill:#ebe9e5;}.b{fill:#d48642;}</style></defs><path class="a" d="M44.88,69.48H0V1.54H43.55C60.18,1.54,65.89,9.19,65.89,17c0,10.4-7.65,16.52-22.85,18h1.33C59.06,34.9,68,41.53,68,51.63,68,62,59.87,69.48,44.88,69.48ZM33.66,18.88H27.54V30h5.61c5.2,0,6.22-3.77,6.22-5.81C39.37,21.43,37.74,18.88,33.66,18.88Zm.51,21.22H27.54v12h7.14c4.79,0,6.83-2.76,6.83-6.23S39.07,40.1,34.17,40.1Z"/><path class="a" d="M101.08,70.5c-18.26,0-30.3-9.39-30.3-24.79s12-24.79,30.3-24.79,30.29,9.39,30.29,24.79S119.33,70.5,101.08,70.5Zm0-34.79c-2.25,0-3.78,1.13-3.78,10s1.53,10,3.78,10,3.77-1.13,3.77-10S103.32,35.71,101.08,35.71Z"/><path class="a" d="M164.62,70.5c-18.26,0-30.3-9.39-30.3-24.79s12-24.79,30.3-24.79,30.29,9.39,30.29,24.79S182.87,70.5,164.62,70.5Zm0-34.79c-2.25,0-3.78,1.13-3.78,10s1.53,10,3.78,10,3.77-1.13,3.77-10S166.86,35.71,164.62,35.71Z"/><path class="a" d="M199.7,69.48V1.54h26.52v35.7L237,21.94h24.68l-15.3,19.69,16.32,27.85H235.6L229.18,55.4l-3,4.39v9.69Z"/><path class="a" d="M288.33,70.5a45.3,45.3,0,0,1-25.7-7.45L268,51.32c3.57,2.65,10.41,5.61,15.1,5.61,2.24,0,3.37-.51,3.37-1.63s-.72-1.53-2.45-1.94c-14.69-3.47-19.28-7.55-19.28-17,0-8.67,8.06-15.41,24.07-15.41a44,44,0,0,1,22.85,6L307,38.57a34.2,34.2,0,0,0-14.59-4.08c-1.43,0-2.14.41-2.14,1.22,0,1.13.82,1.43,7,3.06C307.92,41.53,312,45.81,312,54,312,63.25,304.65,70.5,288.33,70.5Z"/><path class="a" d="M405.66,32.76,414.94,1h22.75L418.51,69H393.12l-10-36L371.9,69H347.32L327.33,1h28.05l8.36,31.73L372.51,1h24.28Z"/><path class="a" d="M460.94,48c.41,7.55,2.24,8.27,4.08,8.27s2.75-1.43,2.75-3.06a5.26,5.26,0,0,0-.3-1.74l20.91,1.94a14.05,14.05,0,0,1,.41,3.37c0,10.09-11.63,13.26-26.52,13.26-19.89,0-27.85-9.39-27.85-24.79,0-13.57,8.87-24.79,28.87-24.79,12.85,0,25.8,5.1,25.8,20.71a33.74,33.74,0,0,1-.71,6.83Zm0-6.73h6c.1-1,.2-1.83.2-2.65,0-3.77-1.22-5.51-3-5.51S461.14,34.18,460.94,41.22Z"/><path class="a" d="M516.32,69V1h27.54V50.61h28.86V69Z"/><path class="a" d="M606.48,70c-18.26,0-30.29-9.39-30.29-24.79s12-24.79,30.29-24.79,30.29,9.39,30.29,24.79S624.74,70,606.48,70Zm0-34.79c-2.24,0-3.77,1.13-3.77,10s1.53,10,3.77,10,3.78-1.13,3.78-10S608.72,35.2,606.48,35.2Z"/><path class="a" d="M733.6,48c.41,7.55,2.25,8.27,4.08,8.27s2.76-1.43,2.76-3.06a5,5,0,0,0-.31-1.74L761,53.36a13.56,13.56,0,0,1,.41,3.37c0,10.09-11.63,13.26-26.52,13.26C715,70,707.08,60.6,707.08,45.2c0-13.57,8.88-24.79,28.87-24.79,12.85,0,25.8,5.1,25.8,20.71A33.74,33.74,0,0,1,761,48Zm0-6.73h6c.1-1,.21-1.83.21-2.65,0-3.77-1.23-5.51-3-5.51S733.81,34.18,733.6,41.22Z"/><path class="a" d="M666.17,69.73c-4.5-5-7.15-11-9.29-15.39-3.55-7.35-5.33-11-15.46-13.75l5.44-20.34c15.47,4.13,22,11.9,26.13,19.33C676.9,32,683.36,24.31,698.7,20l5.72,20.26c-10.38,2.93-12,6.77-15.13,14.42-1.67,4-3.67,10.37-7,15.06Z"/><path class="b" d="M685.1,12.53c-9.63,1.56-10.9,2.83-12.46,12.46-1.56-9.63-2.83-10.9-12.47-12.46C669.81,11,671.08,9.7,672.64.06,674.2,9.7,675.47,11,685.1,12.53Z"/></svg>