<?xml version="1.0" encoding="utf-8"?>
<!-- Generator: Adobe Illustrator 26.3.1, SVG Export Plug-In . SVG Version: 6.00 Build 0)  -->
<svg version="1.1" id="Layer_1" xmlns="http://www.w3.org/2000/svg" xmlns:xlink="http://www.w3.org/1999/xlink" x="0px" y="0px"
	 viewBox="0 0 222.7 18.5" style="enable-background:new 0 0 222.7 18.5;" xml:space="preserve">
<style type="text/css">
	.st0{fill:#EBE9E5;}
</style>
<g>
	<path class="st0" d="M6.7,8.8v3.6c-0.6,0.4-1.5,0.6-2.3,0.6c-1.9,0-3.2-1.6-3.2-3.9c0-2.7,1.6-4.2,3.8-4.2c0.8,0,1.3,0.1,1.7,0.2
		L6.1,7.5c-0.7-1.1-1.3-1.8-2-1.8c-0.9,0-1.2,0.8-1.2,2.5C2.9,10.3,4,12,5.2,12h0c0-1.3-0.2-2.6-0.9-3.3H6.7z"/>
	<path class="st0" d="M11.6,6.6l-0.3,2.6c-0.6-1-0.9-1.2-1.2-1.2C9.8,8,9.7,8.3,9.7,9.3V11c0,0.6,0,1.1,0.3,1.8H7.6
		C7.9,12,7.9,11.6,7.9,11V9.1c0-0.7-0.1-1.2-0.5-1.8c0.6-0.3,1.1-0.5,1.7-0.8c0.2,0.3,0.4,0.9,0.5,1.4c0.3-1.1,0.7-1.3,1.4-1.3
		C11.2,6.6,11.5,6.6,11.6,6.6z"/>
	<path class="st0" d="M16.8,9.7h-3.1c0.1,1,0.6,1.6,1.8,1.6c0.6,0,0.9-0.1,1.2-0.3c-0.1,0.7-0.8,1.8-2.2,1.8c-1.5,0-2.6-1.2-2.6-3.1
		c0-1.8,0.9-3.2,2.7-3.2c1.5,0,2.1,1.1,2.1,2.3V9.7z M15,8.9c0-1.3-0.2-1.7-0.6-1.7c-0.4,0-0.7,0.5-0.7,1.8c0,0.1,0,0.3,0,0.4h0.9
		C14.9,9.3,15,9.3,15,8.9z"/>
	<path class="st0" d="M20.6,12.7c-0.1-0.2-0.2-0.5-0.2-0.8c-0.4,0.5-1,0.9-1.7,0.9c-0.8,0-1.3-0.5-1.3-1.3c0-0.9,0.9-1.3,1.8-1.7
		c1.1-0.5,1.2-0.6,1.2-0.9V8.4c0-0.7-0.1-1.2-0.6-1.2c-0.4,0-0.5,0.3-0.5,0.7c0,0.3,0.1,0.7,0.3,1.2l-1.8-0.1V8.6
		c0-1.2,0.8-2.1,2.4-2.1c1.5,0,2.2,0.8,2.2,2.5v1.7c0,0.9,0,1.4,0.3,2H20.6z M20.3,11.6v-1.2c0-0.3-0.1-0.3-0.3-0.3
		c-0.7,0-0.9,0.2-0.9,0.8s0.3,0.9,0.7,0.9C20,11.7,20.1,11.7,20.3,11.6z"/>
	<path class="st0" d="M25,7.1v3.4c0,0.3,0,1,0.6,1c0.3,0,0.5-0.1,0.7-0.3c0,1-0.7,1.7-1.7,1.7c-0.7,0-1.4-0.4-1.4-1.7V7.1h-0.7
		l0.1-0.4h0.6c0-0.2,0-0.5,0-0.9c0.6-0.3,1.3-0.6,1.8-0.9v1.8h1.4l-0.1,0.4H25z"/>
	<path class="st0" d="M32.3,6.6l-0.3,2.6c-0.6-1-0.9-1.2-1.2-1.2c-0.3,0-0.4,0.4-0.4,1.3V11c0,0.6,0,1.1,0.3,1.8h-2.3
		c0.3-0.7,0.3-1.1,0.3-1.8V9.1c0-0.7-0.1-1.2-0.5-1.8c0.6-0.3,1.1-0.5,1.7-0.8c0.2,0.3,0.4,0.9,0.5,1.4c0.3-1.1,0.7-1.3,1.4-1.3
		C32,6.6,32.2,6.6,32.3,6.6z"/>
	<path class="st0" d="M37.5,9.7h-3.1c0.1,1,0.6,1.6,1.8,1.6c0.6,0,0.9-0.1,1.2-0.3c-0.1,0.7-0.8,1.8-2.2,1.8c-1.5,0-2.6-1.2-2.6-3.1
		c0-1.8,0.9-3.2,2.7-3.2c1.5,0,2.1,1.1,2.1,2.3V9.7z M35.7,8.9c0-1.3-0.2-1.7-0.6-1.7c-0.4,0-0.7,0.5-0.7,1.8c0,0.1,0,0.3,0,0.4h0.9
		C35.7,9.3,35.7,9.3,35.7,8.9z"/>
	<path class="st0" d="M41.3,12.7c-0.1-0.2-0.2-0.5-0.2-0.8c-0.4,0.5-1,0.9-1.7,0.9c-0.8,0-1.3-0.5-1.3-1.3c0-0.9,0.9-1.3,1.8-1.7
		C40.9,9.4,41,9.3,41,9V8.4c0-0.7-0.1-1.2-0.6-1.2c-0.4,0-0.5,0.3-0.5,0.7c0,0.3,0.1,0.7,0.3,1.2l-1.8-0.1V8.6
		c0-1.2,0.8-2.1,2.4-2.1c1.5,0,2.2,0.8,2.2,2.5v1.7c0,0.9,0,1.4,0.3,2H41.3z M41,11.6v-1.2c0-0.3-0.1-0.3-0.3-0.3
		c-0.7,0-0.9,0.2-0.9,0.8s0.3,0.9,0.7,0.9C40.7,11.7,40.9,11.7,41,11.6z"/>
	<path class="st0" d="M47.2,12.7c-0.1-0.1-0.2-0.4-0.3-0.7c-0.3,0.5-0.8,0.8-1.4,0.8c-1,0-1.9-0.9-1.9-2.7c0-2.5,1.5-3.5,2.6-3.5
		c0.3,0,0.5,0,0.7,0.1V6.4c0-0.6,0-1.1-0.3-1.5c0.7-0.2,1.4-0.4,2-0.8V11c0,0.6,0,1,0.3,1.7H47.2z M46.9,11.6v-3
		c0-1-0.3-1.5-0.7-1.5c-0.5,0-0.8,0.5-0.8,2.2s0.4,2.3,1.1,2.3C46.7,11.7,46.8,11.7,46.9,11.6z"/>
	<path class="st0" d="M50.8,7.6c0,0.3,0.4,0.6,1.3,1.1l0.7,0.4c0.4,0.3,1,0.8,1,1.7c0,1.1-0.9,2-2.1,2c-1.1,0-1.9-0.6-2.3-1.4l1.1-1
		c0.7,1.2,1.4,1.6,1.8,1.6c0.2,0,0.4-0.1,0.4-0.4c0-0.3-0.2-0.5-0.9-1l-1-0.6c-0.8-0.5-1.3-0.9-1.3-1.7c0-1,1-1.9,2.6-2
		c0.6,0,1.1,0.1,1.4,0.2l-0.2,2.1c-0.5-0.9-1.4-1.6-2.1-1.6C51,7.3,50.8,7.5,50.8,7.6z"/>
	<path class="st0" d="M54.8,13.3c0-0.5-0.2-1.1-0.5-1.5c0.6-0.3,1.1-0.7,1.7-1.1c0.2,0.4,0.3,0.8,0.3,1.2c0,1.2-0.9,2.2-1.7,2.3
		C54.7,13.9,54.8,13.6,54.8,13.3z"/>
	<path class="st0" d="M60.9,7.1v3.4c0,0.3,0,1,0.6,1c0.3,0,0.5-0.1,0.7-0.3c0,1-0.7,1.7-1.7,1.7c-0.7,0-1.4-0.4-1.4-1.7V7.1h-0.7
		l0.1-0.4h0.6c0-0.2,0-0.5,0-0.9c0.6-0.3,1.3-0.6,1.8-0.9v1.8h1.4l-0.1,0.4H60.9z"/>
	<path class="st0" d="M67.9,12.7h-1.9c-0.1-0.5-0.2-1.2-0.2-2V8.5c0-0.6-0.2-0.8-0.5-0.8c-0.2,0-0.4,0.1-0.6,0.3v3
		c0,0.7,0,1.1,0.3,1.7h-2.3c0.3-0.6,0.3-1,0.3-1.7V6.5c0-0.6,0-1.1-0.3-1.6c0.7-0.2,1.3-0.4,2-0.8v3.6c0.3-0.7,1-1.1,1.6-1.1
		c0.8,0,1.3,0.6,1.3,1.7v2.4C67.5,11.5,67.6,12,67.9,12.7z"/>
	<path class="st0" d="M68.4,9.7c0-2,1.1-3.2,2.7-3.2c1.4,0,2.6,1.1,2.6,3.1c0,2-1.1,3.2-2.7,3.2C69.5,12.9,68.4,11.7,68.4,9.7z
		 M71.7,10.3c0-1.6-0.3-3.1-0.9-3.1c-0.5,0-0.6,0.8-0.6,1.9c0,1.6,0.3,3.1,0.9,3.1C71.6,12.2,71.7,11.5,71.7,10.3z"/>
	<path class="st0" d="M77.6,12.7c-0.1-0.2-0.2-0.7-0.2-1c-0.3,0.7-1,1.1-1.6,1.1c-0.9,0-1.3-0.6-1.3-1.7V8.8c0-0.5,0-0.8-0.3-1.5
		c0.7-0.2,1.4-0.5,2-0.8v4.4c0,0.5,0.1,0.8,0.5,0.8c0.2,0,0.4-0.1,0.6-0.3V8.8c0-0.5,0-1-0.2-1.5c0.7-0.2,1.3-0.4,1.9-0.8V11
		c0,0.6,0,1,0.3,1.7H77.6z"/>
	<path class="st0" d="M83.9,7c0.5,0.4,0.9,0.9,0.9,1.6c0,1.3-1.1,2.2-2.5,2.2c-0.2,0-0.5,0-0.7-0.1c-0.2,0.2-0.3,0.3-0.3,0.4
		c0,0.3,0.3,0.3,0.6,0.3h1.3c0.7,0,1.8,0,1.8,1.2c0,1.2-1.1,2.5-3.2,2.5c-0.6,0-1.4-0.1-2.1-0.5l0.9-1.5c0.9,0.8,1.8,0.9,2.4,0.9
		c0.8,0,1-0.3,1-0.6c0-0.4-0.4-0.5-1-0.5h-1.3c-1.1,0-1.8-0.2-1.8-0.9c0-0.6,0.5-1.2,1.1-1.6c-0.7-0.3-1.1-1-1.1-1.8
		c0-1.3,1-2.3,2.4-2.3c0.4,0,0.8,0.1,1.2,0.3c0.3-1.2,0.8-1.6,1.5-1.6c0.2,0,0.4,0,0.5,0.1l-0.3,2c-0.2-0.5-0.5-0.7-0.8-0.7
		C84.2,6.7,84,6.8,83.9,7z M83,9c0-0.9-0.2-1.9-0.7-1.9c-0.3,0-0.5,0.5-0.5,1.3c0,1,0.2,1.9,0.7,1.9C82.8,10.3,83,9.8,83,9z"/>
	<path class="st0" d="M91,12.7h-1.9c-0.1-0.5-0.2-1.2-0.2-2V8.5c0-0.6-0.2-0.8-0.5-0.8c-0.2,0-0.4,0.1-0.6,0.3v3
		c0,0.7,0,1.1,0.3,1.7h-2.3c0.3-0.6,0.3-1,0.3-1.7V6.5c0-0.6,0-1.1-0.3-1.6c0.7-0.2,1.3-0.4,2-0.8v3.6c0.3-0.7,1-1.1,1.6-1.1
		c0.8,0,1.3,0.6,1.3,1.7v2.4C90.7,11.5,90.8,12,91,12.7z"/>
	<path class="st0" d="M93.6,7.1v3.4c0,0.3,0,1,0.6,1c0.3,0,0.5-0.1,0.7-0.3c0,1-0.7,1.7-1.7,1.7c-0.7,0-1.4-0.4-1.4-1.7V7.1h-0.7
		l0.1-0.4h0.6c0-0.2,0-0.5,0-0.9c0.6-0.3,1.3-0.6,1.8-0.9v1.8H95L95,7.1H93.6z"/>
	<path class="st0" d="M97.6,6.7h1.3l-0.1,0.4h-1.1v3.5c0,0.6,0,1.4,0.3,2.1h-2.3c0.2-0.7,0.3-1.4,0.3-2.1V7.1h-0.7l0.1-0.4h0.6
		c0-1.3,0.8-2.5,2.2-2.5c0.6,0,0.9,0.1,1.1,0.2l-0.5,2c-0.3-0.7-1.1-1.5-1.5-1.5c-0.2,0-0.3,0.1-0.3,0.3C97.1,5.5,97.3,6,97.6,6.7z"
		/>
	<path class="st0" d="M102.5,12.7c-0.1-0.2-0.2-0.7-0.2-1c-0.3,0.7-1,1.1-1.6,1.1c-0.9,0-1.3-0.6-1.3-1.7V8.8c0-0.5,0-0.8-0.3-1.5
		c0.7-0.2,1.4-0.5,2-0.8v4.4c0,0.5,0.1,0.8,0.5,0.8c0.2,0,0.4-0.1,0.6-0.3V8.8c0-0.5,0-1-0.2-1.5c0.7-0.2,1.3-0.4,1.9-0.8V11
		c0,0.6,0,1,0.3,1.7H102.5z"/>
	<path class="st0" d="M105.2,11.1V6.5c0-0.6,0-1.1-0.3-1.6c0.7-0.2,1.3-0.4,2-0.8v6.9c0,0.7,0,1.1,0.3,1.7h-2.3
		C105.2,12.1,105.2,11.7,105.2,11.1z"/>
	<path class="st0" d="M108.1,11.1V6.5c0-0.6,0-1.1-0.3-1.6c0.7-0.2,1.3-0.4,2-0.8v6.9c0,0.7,0,1.1,0.3,1.7h-2.3
		C108.1,12.1,108.1,11.7,108.1,11.1z"/>
	<path class="st0" d="M116.2,6.7c-0.4,0.5-0.6,1-0.9,1.9l-1.2,3.9c-0.8,2.6-1.2,2.7-2.4,2.7h-0.5l-0.1-2.1c0.5,0.3,0.9,0.4,1.3,0.4
		c0.4,0,0.8-0.2,0.9-0.6l0.1-0.2h-0.8l-1.3-4.1c-0.3-0.9-0.5-1.4-0.9-1.9h2.7c-0.1,0.1-0.1,0.4-0.1,0.7c0,0.3,0,0.8,0.2,1.1l0.7,2.6
		l0.7-2.6c0.1-0.3,0.1-0.7,0.1-1s0-0.6-0.1-0.8H116.2z"/>
	<path class="st0" d="M120.6,12.9c-1.5,0-2.5-1.2-2.5-3c0-1.8,1.1-3.3,3.1-3.3c0.4,0,0.9,0.1,1.2,0.2L122,9
		c-0.7-1.1-1.2-1.7-1.7-1.7c-0.3,0-0.5,0.4-0.5,1.3c0,1.9,0.4,2.8,1.6,2.8c0.4,0,0.7-0.2,1-0.3C122.3,12.2,121.6,12.9,120.6,12.9z"
		/>
	<path class="st0" d="M126.4,12.7c-0.1-0.2-0.2-0.7-0.2-1c-0.3,0.7-1,1.1-1.6,1.1c-0.9,0-1.3-0.6-1.3-1.7V8.8c0-0.5,0-0.8-0.3-1.5
		c0.7-0.2,1.4-0.5,2-0.8v4.4c0,0.5,0.1,0.8,0.5,0.8c0.2,0,0.4-0.1,0.6-0.3V8.8c0-0.5,0-1-0.2-1.5c0.7-0.2,1.3-0.4,1.9-0.8V11
		c0,0.6,0,1,0.3,1.7H126.4z"/>
	<path class="st0" d="M132.7,6.6l-0.3,2.6c-0.6-1-0.9-1.2-1.2-1.2c-0.3,0-0.4,0.4-0.4,1.3V11c0,0.6,0,1.1,0.3,1.8h-2.3
		c0.3-0.7,0.3-1.1,0.3-1.8V9.1c0-0.7-0.1-1.2-0.5-1.8c0.6-0.3,1.1-0.5,1.7-0.8c0.2,0.3,0.4,0.9,0.5,1.4c0.3-1.1,0.7-1.3,1.4-1.3
		C132.4,6.6,132.6,6.6,132.7,6.6z"/>
	<path class="st0" d="M136.2,12.7c-0.1-0.2-0.2-0.5-0.2-0.8c-0.4,0.5-1,0.9-1.7,0.9c-0.8,0-1.3-0.5-1.3-1.3c0-0.9,0.9-1.3,1.8-1.7
		c1.1-0.5,1.2-0.6,1.2-0.9V8.4c0-0.7-0.1-1.2-0.6-1.2c-0.4,0-0.5,0.3-0.5,0.7c0,0.3,0.1,0.7,0.3,1.2l-1.8-0.1V8.6
		c0-1.2,0.8-2.1,2.4-2.1c1.5,0,2.2,0.8,2.2,2.5v1.7c0,0.9,0,1.4,0.3,2H136.2z M136,11.6v-1.2c0-0.3-0.1-0.3-0.3-0.3
		c-0.7,0-0.9,0.2-0.9,0.8s0.3,0.9,0.7,0.9C135.6,11.7,135.8,11.7,136,11.6z"/>
	<path class="st0" d="M140.7,7.1v3.4c0,0.3,0,1,0.6,1c0.3,0,0.5-0.1,0.7-0.3c0,1-0.7,1.7-1.7,1.7c-0.7,0-1.4-0.4-1.4-1.7V7.1h-0.7
		l0.1-0.4h0.6c0-0.2,0-0.5,0-0.9c0.6-0.3,1.3-0.6,1.8-0.9v1.8h1.4L142,7.1H140.7z"/>
	<path class="st0" d="M147.2,9.7h-3.1c0.1,1,0.6,1.6,1.8,1.6c0.6,0,0.9-0.1,1.2-0.3c-0.1,0.7-0.8,1.8-2.2,1.8
		c-1.5,0-2.6-1.2-2.6-3.1c0-1.8,0.9-3.2,2.7-3.2c1.5,0,2.1,1.1,2.1,2.3V9.7z M145.4,8.9c0-1.3-0.2-1.7-0.6-1.7
		c-0.4,0-0.7,0.5-0.7,1.8c0,0.1,0,0.3,0,0.4h0.9C145.3,9.3,145.4,9.3,145.4,8.9z"/>
	<path class="st0" d="M151.4,12.7c-0.1-0.1-0.2-0.4-0.3-0.7c-0.3,0.5-0.8,0.8-1.4,0.8c-1,0-1.9-0.9-1.9-2.7c0-2.5,1.5-3.5,2.6-3.5
		c0.3,0,0.5,0,0.7,0.1V6.4c0-0.6,0-1.1-0.3-1.5c0.7-0.2,1.4-0.4,2-0.8V11c0,0.6,0,1,0.3,1.7H151.4z M151.1,11.6v-3
		c0-1-0.3-1.5-0.7-1.5c-0.5,0-0.8,0.5-0.8,2.2s0.4,2.3,1.1,2.3C150.9,11.7,151,11.7,151.1,11.6z"/>
	<path class="st0" d="M160.8,9.2c0,2.1-1,3.6-2.7,3.6c-0.3,0-0.8-0.1-1.1-0.6l-0.4,0.5h-0.9V6.4c0-0.6-0.1-1-0.3-1.5
		c0.7-0.2,1.4-0.5,2-0.8v3.4c0.3-0.6,0.9-0.9,1.5-0.9C159.9,6.6,160.8,7.3,160.8,9.2z M158.9,9.9c0-1.7-0.3-2.3-0.8-2.3
		c-0.2,0-0.4,0.1-0.7,0.3v3.3c0,0.7,0.4,1,0.7,1C158.6,12.2,158.9,11.6,158.9,9.9z"/>
	<path class="st0" d="M166.6,6.7c-0.4,0.5-0.6,1-0.9,1.9l-1.2,3.9c-0.8,2.6-1.2,2.7-2.4,2.7h-0.5l-0.1-2.1c0.5,0.3,0.9,0.4,1.3,0.4
		c0.4,0,0.8-0.2,0.9-0.6l0.1-0.2H163l-1.3-4.1c-0.3-0.9-0.5-1.4-0.9-1.9h2.7c-0.1,0.1-0.1,0.4-0.1,0.7c0,0.3,0,0.8,0.2,1.1l0.7,2.6
		l0.7-2.6c0.1-0.3,0.1-0.7,0.1-1s0-0.6-0.1-0.8H166.6z"/>
</g>
<g>
	<path class="st0" d="M172,1v16.1h47V1H172z M218.3,1.7v14.8h-14.7V1.7H218.3z M202.9,1.7v14.8h-14.7V1.7H202.9z M187.4,1.7v14.8
		h-14.8V1.7H187.4z"/>
	<path class="st0" d="M178.6,7.4c0.2-0.2,0.4-0.4,0.7-0.6c0.3-0.2,0.6-0.2,0.9-0.2c0.6,0,1,0.2,1.3,0.5c0.3,0.3,0.4,0.8,0.4,1.5v4.6
		h1.8V8.3c0-1-0.3-1.8-0.8-2.4c-0.5-0.6-1.3-0.8-2.2-0.8c-1,0-1.7,0.3-2.2,0.9l-0.3-0.7h-1.3v7.9h1.8L178.6,7.4L178.6,7.4z"/>
	<path class="st0" d="M193.9,12.9c0.5,0.2,1,0.3,1.6,0.3c1.2,0,2.2-0.3,2.9-1c0.7-0.7,1-1.7,1-3c0-2.8-1.3-4.2-3.8-4.2
		c-0.7,0-1.2,0.2-1.7,0.7V5.2H192v10.1h1.8L193.9,12.9L193.9,12.9z M193.9,7.2c0.3-0.3,0.7-0.5,1.2-0.5c0.8,0,1.5,0.2,1.8,0.6
		c0.4,0.4,0.6,1,0.6,2c0,0.9-0.2,1.5-0.6,1.9c-0.4,0.4-1,0.6-1.8,0.6c-0.4,0-0.8-0.1-1.2-0.4V7.2L193.9,7.2z"/>
	<path class="st0" d="M210.4,8.6c0-0.6,0.2-1,0.5-1.4c0.3-0.4,0.7-0.6,1.1-0.6c0.4,0,0.8,0.1,1.1,0.3l0.8-1.6
		c-0.3-0.2-0.8-0.3-1.4-0.3c-0.9,0-1.5,0.3-2.1,0.9V5.2h-1.8v7.9h1.8V8.6z"/>
</g>
</svg>
